<?xml version="1.0" encoding="utf-8"?>
<!-- Generator: Adobe Illustrator 27.8.1, SVG Export Plug-In . SVG Version: 6.00 Build 0)  -->
<svg version="1.1" id="Camada_1" xmlns="http://www.w3.org/2000/svg" xmlns:xlink="http://www.w3.org/1999/xlink" x="0px" y="0px"
	 viewBox="0 0 425.2 425.2" style="enable-background:new 0 0 425.2 425.2;" xml:space="preserve">
<style type="text/css">
	.st0{fill:#1E1F34;}
	.st1{display:none;fill:#FF900B;}
	.st2{display:none;fill:none;stroke:#F9F9F9;stroke-width:18;stroke-miterlimit:10;}
	.st3{display:none;fill:#AAA85F;}
	.st4{display:none;fill:none;stroke:#000000;stroke-width:14;stroke-miterlimit:10;}
	.st5{fill:none;stroke:#1DFDA7;stroke-width:6;stroke-miterlimit:10;}
	.st6{fill:#1DFDA7;}
	.st7{fill:none;}
	.st8{fill:url(#SVGID_1_);}
	.st9{fill:url(#SVGID_00000106105165790955098880000004354140351926935707_);}
	.st10{fill:none;stroke:#1E1F34;stroke-width:6;stroke-miterlimit:10;}
	.st11{fill:#282A43;}
</style>
<g>
	<g>
		<path class="st11" d="M212.6,357.7c-80,0-145.1-65.1-145.1-145.1c0-80,65.1-145.1,145.1-145.1c80,0,145.1,65.1,145.1,145.1
			C357.7,292.6,292.6,357.7,212.6,357.7z M212.6,85.4c-70.1,0-127.2,57-127.2,127.2c0,70.1,57,127.2,127.2,127.2
			c70.1,0,127.2-57,127.2-127.2C339.8,142.5,282.7,85.4,212.6,85.4z"/>
	</g>
	<g>
		<path class="st11" d="M263.9,305.5c-51.2,0-92.9-41.7-92.9-92.9s41.7-92.9,92.9-92.9s92.9,41.7,92.9,92.9S315.1,305.5,263.9,305.5
			z M263.9,137.6c-41.3,0-75,33.6-75,75c0,41.3,33.6,75,75,75c41.3,0,75-33.6,75-75C338.8,171.3,305.2,137.6,263.9,137.6z"/>
	</g>
	<g>
		<path class="st11" d="M212.6,254.3c-23,0-41.7-18.7-41.7-41.7c0-23,18.7-41.7,41.7-41.7s41.7,18.7,41.7,41.7
			C254.3,235.6,235.6,254.3,212.6,254.3z M212.6,188.9c-13.1,0-23.7,10.6-23.7,23.7c0,13.1,10.6,23.7,23.7,23.7
			c13.1,0,23.7-10.6,23.7-23.7C236.3,199.5,225.7,188.9,212.6,188.9z"/>
	</g>
</g>
</svg>
